<svg width="24" height="24" viewBox="0 0 24 24" fill="none" xmlns="http://www.w3.org/2000/svg" data-reactroot="">
<path stroke-width="2" stroke="#000" fill="none" d="M7 9C7 7.89543 7.89543 7 9 7H19C20.1046 7 21 7.89543 21 9V15C21 16.1046 20.1046 17 19 17H9C7.89543 17 7 16.1046 7 15V9Z"></path>
<path stroke-width="2" stroke="#000" fill="none" d="M3 8L7 9.14286V14.8571L3 16V8Z"></path>
<circle stroke-width="2" stroke="#000" fill="none" r="2" cy="12" cx="12"></circle>
<path stroke-linecap="round" stroke-width="2" stroke="#000" d="M12 16.9999L10.5 21"></path>
<path stroke-linecap="round" stroke-width="2" stroke="#000" d="M16 17.0002L17.5 21"></path>
<path stroke-linejoin="round" stroke-linecap="round" stroke-width="2" stroke="#000" d="M10 7V4.77778V4C10 3.44771 10.4477 3 11 3H18"></path>
</svg>
